<svg width="1443" height="192" viewBox="0 0 1443 192" fill="none" xmlns="http://www.w3.org/2000/svg">
<path d="M49.8 23.8C57.6667 23.8 64.5333 25.4 70.4 28.6C76.4 31.8 81 36 84.2 41.2V25.4H118.4V136.8C118.4 147.067 116.333 156.333 112.2 164.6C108.2 173 102 179.667 93.6 184.6C85.3333 189.533 75 192 62.6 192C46.0667 192 32.6667 188.067 22.4 180.2C12.1333 172.467 6.26667 161.933 4.8 148.6H38.6C39.6667 152.867 42.2 156.2 46.2 158.6C50.2 161.133 55.1333 162.4 61 162.4C68.0667 162.4 73.6667 160.333 77.8 156.2C82.0667 152.2 84.2 145.733 84.2 136.8V121C80.8667 126.2 76.2667 130.467 70.4 133.8C64.5333 137 57.6667 138.6 49.8 138.6C40.6 138.6 32.2667 136.267 24.8 131.6C17.3333 126.8 11.4 120.067 7 111.4C2.73333 102.6 0.6 92.4667 0.6 81C0.6 69.5333 2.73333 59.4667 7 50.8C11.4 42.1333 17.3333 35.4667 24.8 30.8C32.2667 26.1333 40.6 23.8 49.8 23.8ZM84.2 81.2C84.2 72.6667 81.8 65.9333 77 61C72.3333 56.0667 66.6 53.6 59.8 53.6C53 53.6 47.2 56.0667 42.4 61C37.7333 65.8 35.4 72.4667 35.4 81C35.4 89.5333 37.7333 96.3333 42.4 101.4C47.2 106.333 53 108.8 59.8 108.8C66.6 108.8 72.3333 106.333 77 101.4C81.8 96.4667 84.2 89.7333 84.2 81.2ZM248.342 79.4C248.342 82.6 248.142 85.9333 247.742 89.4H170.342C170.876 96.3333 173.076 101.667 176.942 105.4C180.942 109 185.809 110.8 191.542 110.8C200.076 110.8 206.009 107.2 209.342 100H245.742C243.876 107.333 240.476 113.933 235.542 119.8C230.742 125.667 224.676 130.267 217.342 133.6C210.009 136.933 201.809 138.6 192.742 138.6C181.809 138.6 172.076 136.267 163.542 131.6C155.009 126.933 148.342 120.267 143.542 111.6C138.742 102.933 136.342 92.8 136.342 81.2C136.342 69.6 138.676 59.4667 143.342 50.8C148.142 42.1333 154.809 35.4667 163.342 30.8C171.876 26.1333 181.676 23.8 192.742 23.8C203.542 23.8 213.142 26.0667 221.542 30.6C229.942 35.1333 236.476 41.6 241.142 50C245.942 58.4 248.342 68.2 248.342 79.4ZM213.342 70.4C213.342 64.5333 211.342 59.8667 207.342 56.4C203.342 52.9333 198.342 51.2 192.342 51.2C186.609 51.2 181.742 52.8667 177.742 56.2C173.876 59.5333 171.476 64.2667 170.542 70.4H213.342ZM311.784 138.6C302.051 138.6 293.384 136.933 285.784 133.6C278.184 130.267 272.184 125.733 267.784 120C263.384 114.133 260.918 107.6 260.384 100.4H294.184C294.584 104.267 296.384 107.4 299.584 109.8C302.784 112.2 306.718 113.4 311.384 113.4C315.651 113.4 318.918 112.6 321.184 111C323.584 109.267 324.784 107.067 324.784 104.4C324.784 101.2 323.118 98.8667 319.784 97.4C316.451 95.8 311.051 94.0667 303.584 92.2C295.584 90.3333 288.918 88.4 283.584 86.4C278.251 84.2667 273.651 81 269.784 76.6C265.918 72.0667 263.984 66 263.984 58.4C263.984 52 265.718 46.2 269.184 41C272.784 35.6667 277.984 31.4667 284.784 28.4C291.718 25.3333 299.918 23.8 309.384 23.8C323.384 23.8 334.384 27.2667 342.384 34.2C350.518 41.1333 355.184 50.3333 356.384 61.8H324.784C324.251 57.9333 322.518 54.8667 319.584 52.6C316.784 50.3333 313.051 49.2 308.384 49.2C304.384 49.2 301.318 50 299.184 51.6C297.051 53.0667 295.984 55.1333 295.984 57.8C295.984 61 297.651 63.4 300.984 65C304.451 66.6 309.784 68.2 316.984 69.8C325.251 71.9333 331.984 74.0667 337.184 76.2C342.384 78.2 346.918 81.5333 350.784 86.2C354.784 90.7333 356.851 96.8667 356.984 104.6C356.984 111.133 355.118 117 351.384 122.2C347.784 127.267 342.518 131.267 335.584 134.2C328.784 137.133 320.851 138.6 311.784 138.6ZM375.108 82.4C375.108 71.0667 377.374 61.2 381.908 52.8C386.441 44.2667 392.708 37.7333 400.708 33.2C408.708 28.5333 417.841 26.2 428.108 26.2C441.574 26.2 452.641 29.5333 461.308 36.2C470.108 42.8667 475.774 51.9333 478.308 63.4H463.308C461.441 55.5333 457.374 49.4 451.108 45C444.974 40.4667 437.308 38.2 428.108 38.2C420.774 38.2 414.174 39.8667 408.308 43.2C402.441 46.5333 397.774 51.5333 394.308 58.2C390.974 64.7333 389.308 72.8 389.308 82.4C389.308 92 390.974 100.133 394.308 106.8C397.774 113.467 402.441 118.467 408.308 121.8C414.174 125.133 420.774 126.8 428.108 126.8C437.308 126.8 444.974 124.6 451.108 120.2C457.374 115.667 461.441 109.4 463.308 101.4H478.308C475.774 112.6 470.108 121.6 461.308 128.4C452.508 135.2 441.441 138.6 428.108 138.6C417.841 138.6 408.708 136.333 400.708 131.8C392.708 127.133 386.441 120.6 381.908 112.2C377.374 103.667 375.108 93.7333 375.108 82.4ZM551.964 138.6C541.697 138.6 532.431 136.333 524.164 131.8C516.031 127.133 509.564 120.6 504.764 112.2C500.097 103.667 497.764 93.7333 497.764 82.4C497.764 71.0667 500.164 61.2 504.964 52.8C509.764 44.2667 516.297 37.7333 524.564 33.2C532.831 28.5333 542.097 26.2 552.364 26.2C562.631 26.2 571.897 28.5333 580.164 33.2C588.564 37.7333 595.097 44.2667 599.764 52.8C604.564 61.2 606.964 71.0667 606.964 82.4C606.964 93.6 604.564 103.467 599.764 112C594.964 120.533 588.364 127.133 579.964 131.8C571.564 136.333 562.231 138.6 551.964 138.6ZM551.964 126.4C559.164 126.4 565.831 124.8 571.964 121.6C578.097 118.267 583.031 113.333 586.764 106.8C590.631 100.133 592.564 92 592.564 82.4C592.564 72.8 590.697 64.7333 586.964 58.2C583.231 51.5333 578.297 46.6 572.164 43.4C566.031 40.0667 559.364 38.4 552.164 38.4C544.964 38.4 538.297 40.0667 532.164 43.4C526.031 46.6 521.097 51.5333 517.364 58.2C513.764 64.7333 511.964 72.8 511.964 82.4C511.964 92 513.764 100.133 517.364 106.8C521.097 113.333 525.964 118.267 531.964 121.6C538.097 124.8 544.764 126.4 551.964 126.4ZM762.484 25.8C775.284 25.8 785.684 29.8667 793.684 38C801.818 46 805.884 57.6667 805.884 73V137H792.084V74.6C792.084 62.7333 789.218 53.6667 783.484 47.4C777.751 41.1333 769.951 38 760.084 38C749.818 38 741.618 41.4 735.484 48.2C729.351 55 726.284 64.8667 726.284 77.8V137H712.484V74.6C712.484 62.7333 709.618 53.6667 703.884 47.4C698.151 41.1333 690.284 38 680.284 38C670.018 38 661.818 41.4 655.684 48.2C649.551 55 646.484 64.8667 646.484 77.8V137H632.484V27.8H646.484V46.6C649.951 39.8 654.884 34.6667 661.284 31.2C667.684 27.6 674.818 25.8 682.684 25.8C692.151 25.8 700.418 28.0667 707.484 32.6C714.684 37.1333 719.884 43.8 723.084 52.6C726.018 43.9333 731.018 37.3333 738.084 32.8C745.284 28.1333 753.418 25.8 762.484 25.8ZM850.777 51.8C854.243 44.4667 859.71 38.4 867.177 33.6C874.777 28.6667 883.777 26.2 894.177 26.2C904.043 26.2 912.91 28.5333 920.777 33.2C928.777 37.7333 934.977 44.2667 939.377 52.8C943.91 61.2 946.177 71 946.177 82.2C946.177 93.4 943.91 103.267 939.377 111.8C934.977 120.333 928.777 126.933 920.777 131.6C912.91 136.267 904.043 138.6 894.177 138.6C883.91 138.6 874.977 136.2 867.377 131.4C859.777 126.467 854.243 120.333 850.777 113V188.6H836.977V27.8H850.777V51.8ZM931.977 82.2C931.977 73.1333 930.177 65.3333 926.577 58.8C923.11 52.1333 918.31 47.0667 912.177 43.6C906.043 40.1333 899.11 38.4 891.377 38.4C883.91 38.4 877.043 40.2 870.777 43.8C864.643 47.4 859.777 52.5333 856.177 59.2C852.577 65.8667 850.777 73.6 850.777 82.4C850.777 91.2 852.577 98.9333 856.177 105.6C859.777 112.267 864.643 117.4 870.777 121C877.043 124.6 883.91 126.4 891.377 126.4C899.11 126.4 906.043 124.667 912.177 121.2C918.31 117.6 923.11 112.467 926.577 105.8C930.177 99 931.977 91.1333 931.977 82.2ZM1066.54 27.8V137H1052.54V117.8C1049.34 124.6 1044.4 129.8 1037.74 133.4C1031.07 137 1023.6 138.8 1015.34 138.8C1002.27 138.8 991.604 134.8 983.338 126.8C975.071 118.667 970.938 106.933 970.938 91.6V27.8H984.738V90C984.738 101.867 987.671 110.933 993.538 117.2C999.538 123.467 1007.67 126.6 1017.94 126.6C1028.47 126.6 1036.87 123.267 1043.14 116.6C1049.4 109.933 1052.54 100.133 1052.54 87.2V27.8H1066.54ZM1116.7 39.6V107.4C1116.7 114.067 1117.97 118.667 1120.5 121.2C1123.03 123.733 1127.5 125 1133.9 125H1146.7V137H1131.7C1121.83 137 1114.5 134.733 1109.7 130.2C1104.9 125.533 1102.5 117.933 1102.5 107.4V39.6H1087.3V27.8H1102.5V0.399994H1116.7V27.8H1146.7V39.6H1116.7ZM1268.59 76.8C1268.59 81.6 1268.46 85.2667 1268.19 87.8H1177.59C1177.99 96.0667 1179.99 103.133 1183.59 109C1187.19 114.867 1191.92 119.333 1197.79 122.4C1203.66 125.333 1210.06 126.8 1216.99 126.8C1226.06 126.8 1233.66 124.6 1239.79 120.2C1246.06 115.8 1250.19 109.867 1252.19 102.4H1266.99C1264.32 113.067 1258.59 121.8 1249.79 128.6C1241.12 135.267 1230.19 138.6 1216.99 138.6C1206.72 138.6 1197.52 136.333 1189.39 131.8C1181.26 127.133 1174.86 120.6 1170.19 112.2C1165.66 103.667 1163.39 93.7333 1163.39 82.4C1163.39 71.0667 1165.66 61.1333 1170.19 52.6C1174.72 44.0667 1181.06 37.5333 1189.19 33C1197.32 28.4667 1206.59 26.2 1216.99 26.2C1227.39 26.2 1236.46 28.4667 1244.19 33C1252.06 37.5333 1258.06 43.6667 1262.19 51.4C1266.46 59 1268.59 67.4667 1268.59 76.8ZM1254.39 76.4C1254.52 68.2667 1252.86 61.3333 1249.39 55.6C1246.06 49.8667 1241.46 45.5333 1235.59 42.6C1229.72 39.6667 1223.32 38.2 1216.39 38.2C1205.99 38.2 1197.12 41.5333 1189.79 48.2C1182.46 54.8667 1178.39 64.2667 1177.59 76.4H1254.39ZM1308.2 47.2C1311.27 40.4 1315.94 35.1333 1322.2 31.4C1328.6 27.6667 1336.4 25.8 1345.6 25.8V40.4H1341.8C1331.67 40.4 1323.54 43.1333 1317.4 48.6C1311.27 54.0667 1308.2 63.2 1308.2 76V137H1294.2V27.8H1308.2V47.2ZM1404.26 138.6C1391.73 138.6 1381.46 135.733 1373.46 130C1365.6 124.133 1361.2 116.2 1360.26 106.2H1374.66C1375.33 112.333 1378.2 117.333 1383.26 121.2C1388.46 124.933 1395.4 126.8 1404.06 126.8C1411.66 126.8 1417.6 125 1421.86 121.4C1426.26 117.8 1428.46 113.333 1428.46 108C1428.46 104.267 1427.26 101.2 1424.86 98.8C1422.46 96.4 1419.4 94.5333 1415.66 93.2C1412.06 91.7333 1407.13 90.2 1400.86 88.6C1392.73 86.4667 1386.13 84.3333 1381.06 82.2C1376 80.0667 1371.66 76.9333 1368.06 72.8C1364.6 68.5333 1362.86 62.8667 1362.86 55.8C1362.86 50.4667 1364.46 45.5333 1367.66 41C1370.86 36.4667 1375.4 32.8667 1381.26 30.2C1387.13 27.5333 1393.8 26.2 1401.26 26.2C1413 26.2 1422.46 29.2 1429.66 35.2C1436.86 41.0667 1440.73 49.2 1441.26 59.6H1427.26C1426.86 53.2 1424.33 48.0667 1419.66 44.2C1415.13 40.2 1408.86 38.2 1400.86 38.2C1393.8 38.2 1388.06 39.8667 1383.66 43.2C1379.26 46.5333 1377.06 50.6667 1377.06 55.6C1377.06 59.8667 1378.33 63.4 1380.86 66.2C1383.53 68.8667 1386.8 71 1390.66 72.6C1394.53 74.0667 1399.73 75.7333 1406.26 77.6C1414.13 79.7333 1420.4 81.8 1425.06 83.8C1429.73 85.8 1433.73 88.7333 1437.06 92.6C1440.4 96.4667 1442.13 101.6 1442.26 108C1442.26 113.867 1440.66 119.133 1437.46 123.8C1434.26 128.333 1429.8 131.933 1424.06 134.6C1418.33 137.267 1411.73 138.6 1404.26 138.6Z" fill="white"/>
</svg>
